<svg width="196" height="196" viewBox="0 0 196 196" fill="none" xmlns="http://www.w3.org/2000/svg">
<g clip-path="url(#clip0_14_12)">
<rect width="196" height="196" fill="#393939"/>
<path d="M40.2693 125.178L57.363 86.9343C71.0825 81.346 85.898 82.2324 102.11 89.4787C118.322 96.7249 128.864 107.172 133.851 121.122L116.758 159.366C107.282 180.566 82.6203 189.992 61.4197 180.516C40.2192 171.04 30.7935 146.379 40.2693 125.178Z" fill="#0D9373"/>
<path d="M46.0891 127.78C38.0996 145.655 46.146 166.707 64.0209 174.697C81.8959 182.686 102.948 174.64 110.938 156.765L150.328 68.637C158.317 50.762 150.271 29.7096 132.396 21.7202C114.521 13.7307 93.4683 21.7771 85.4789 39.652L46.0891 127.78ZM40.2693 125.178L79.6591 37.0508C89.135 15.8503 113.796 6.42457 134.997 15.9004C156.197 25.3763 165.623 50.0377 156.147 71.2382L116.757 159.366C107.282 180.566 82.6202 189.992 61.4197 180.516C40.2192 171.04 30.7935 146.379 40.2693 125.178Z" fill="white"/>
<path d="M107.313 77.8391C105.826 81.1647 102.217 82.5441 98.8916 81.0576C95.566 79.5712 94.1866 75.9623 95.673 72.6367C97.1594 69.3111 100.768 67.9317 104.094 69.4181C107.305 70.6038 108.799 74.5135 107.313 77.8391ZM137.704 80.7C136.218 84.0256 132.609 85.4049 129.283 83.9185C125.957 82.4321 124.578 78.8231 126.064 75.4976C127.551 72.172 131.16 70.7926 134.485 72.279C137.811 73.7654 139.19 77.3744 137.704 80.7ZM128.368 46.3532C127.253 48.8474 124.546 49.8819 122.052 48.7671C119.558 47.6523 118.524 44.9456 119.638 42.4514C120.753 39.9572 123.46 38.9227 125.954 40.0375C128.448 41.1523 129.483 43.859 128.368 46.3532ZM138.948 38.8627C138.204 40.5255 136.4 41.2152 134.737 40.472C133.074 39.7288 132.385 37.9243 133.128 36.2615C133.871 34.5987 135.676 33.9091 137.338 34.6523C138.886 35.0947 139.691 37.2 138.948 38.8627ZM115.562 35.3925C114.818 37.0552 113.014 37.7449 111.351 37.0017C109.688 36.2585 108.999 34.454 109.742 32.7912C110.485 31.1285 112.29 30.4388 113.952 31.182C115.615 31.9252 116.305 33.7297 115.562 35.3925ZM122.731 66.7759C121.988 68.4386 120.183 69.1283 118.521 68.3851C116.858 67.6419 116.168 65.8374 116.911 64.1746C117.654 62.5119 119.459 61.8222 121.122 62.5654C122.784 63.3086 123.474 65.1131 122.731 66.7759ZM92.0309 56.7946C91.2877 58.4574 89.4832 59.1471 87.8204 58.4039C86.1576 57.6607 85.4679 55.8562 86.2111 54.1934C86.9543 52.5306 88.7588 51.8409 90.4216 52.5841C91.9694 53.0266 92.7741 55.1318 92.0309 56.7946ZM110.917 45.7849C109.059 49.9418 104.247 51.781 100.39 49.808C96.5342 47.8351 94.3943 43.1381 96.3672 39.2818C98.3402 35.4256 103.037 33.2857 106.893 35.2587C110.75 37.2316 112.775 41.6279 110.917 45.7849Z" fill="#0D9373"/>
</g>
<defs>
<clipPath id="clip0_14_12">
<rect width="196" height="196" fill="white"/>
</clipPath>
</defs>
</svg>
