<svg width="492" height="143" viewBox="0 0 492 143" fill="none" xmlns="http://www.w3.org/2000/svg">
<path d="M3.09189 74.6711L14.2677 49.6672C23.2375 46.0136 32.9238 46.5931 43.5232 51.3307C54.1227 56.0683 61.015 62.8988 64.2754 72.0188L53.0996 97.0227C46.9044 110.884 30.7808 117.046 16.92 110.851C3.05912 104.656 -3.10339 88.532 3.09189 74.6711Z" fill="#0D9373"/>
<path d="M6.89683 76.3718C1.67335 88.0584 6.93403 101.822 18.6206 107.046C30.3072 112.269 44.0712 107.009 49.2947 95.322L75.0476 37.7044C80.2711 26.0178 75.0104 12.2538 63.3238 7.03034C51.6372 1.80687 37.8732 7.06755 32.6498 18.7541L6.89683 76.3718ZM3.09189 74.6711L28.8448 17.0535C35.0401 3.19263 51.1637 -2.96987 65.0245 3.22541C78.8853 9.42069 85.0479 25.5442 78.8526 39.4051L53.0996 97.0227C46.9044 110.884 30.7808 117.046 16.92 110.851C3.05911 104.655 -3.10339 88.5319 3.09189 74.6711Z" fill="white"/>
<path d="M46.9245 43.7208C45.9527 45.8951 43.5932 46.7969 41.4189 45.8251C39.2447 44.8533 38.3428 42.4938 39.3147 40.3195C40.2865 38.1453 42.646 37.2434 44.8203 38.2152C46.9194 38.9904 47.8963 41.5466 46.9245 43.7208ZM66.7944 45.5913C65.8226 47.7655 63.463 48.6674 61.2888 47.6955C59.1145 46.7237 58.2127 44.3642 59.1845 42.1899C60.1563 40.0157 62.5159 39.1139 64.6901 40.0857C66.8644 41.0575 67.7662 43.417 66.7944 45.5913ZM60.6905 23.1354C59.9617 24.7661 58.192 25.4425 56.5613 24.7136C54.9306 23.9848 54.2543 22.2151 54.9831 20.5844C55.712 18.9538 57.4816 18.2774 59.1123 19.0062C60.743 19.7351 61.4194 21.5047 60.6905 23.1354ZM67.6075 18.2382C67.1216 19.3253 65.9418 19.7762 64.8547 19.2903C63.7676 18.8044 63.3167 17.6247 63.8026 16.5375C64.2885 15.4504 65.4682 14.9995 66.5554 15.4854C67.5673 15.7747 68.0934 17.1511 67.6075 18.2382ZM52.3178 15.9693C51.8319 17.0565 50.6521 17.5074 49.565 17.0215C48.4779 16.5356 48.0269 15.3558 48.5128 14.2687C48.9987 13.1815 50.1785 12.7306 51.2656 13.2165C52.3528 13.7024 52.8037 14.8822 52.3178 15.9693ZM57.0051 36.4877C56.5192 37.5748 55.3394 38.0257 54.2523 37.5398C53.1652 37.0539 52.7142 35.8742 53.2001 34.787C53.6861 33.6999 54.8658 33.249 55.9529 33.7349C57.0401 34.2208 57.491 35.4006 57.0051 36.4877ZM36.9334 29.962C36.4475 31.0491 35.2678 31.5 34.1806 31.0141C33.0935 30.5282 32.6426 29.3485 33.1285 28.2613C33.6144 27.1742 34.7942 26.7233 35.8813 27.2092C36.8933 27.4985 37.4193 28.8749 36.9334 29.962ZM49.2809 22.7639C48.0661 25.4817 44.9201 26.6841 42.3989 25.3942C39.8777 24.1043 38.4786 21.0334 39.7685 18.5122C41.0584 15.991 44.1294 14.5919 46.6505 15.8819C49.1717 17.1718 50.4956 20.0461 49.2809 22.7639Z" fill="#0D9373"/>
<path d="M147.73 90.47C147.73 94.5433 146.777 98.0533 144.87 101C143.05 103.86 140.017 106.503 135.77 108.93C132.91 110.663 129.573 111.963 125.76 112.83C121.947 113.697 118.09 114.13 114.19 114.13C110.203 114.13 105.263 112.83 99.37 110.23C95.1233 108.15 91.7433 105.68 89.23 102.82C86.8033 99.96 85.59 96.84 85.59 93.46C85.59 91.12 86.11 89.43 87.15 88.39C88.19 87.2633 89.88 86.7 92.22 86.7C93.4333 86.7 94.69 87.22 95.99 88.26C97.29 89.2133 98.07 90.1667 98.33 91.12C99.5433 94.6733 101.667 97.4033 104.7 99.31C107.733 101.13 111.503 102.04 116.01 102.04C121.21 102.04 125.543 101.087 129.01 99.18C132.563 97.2733 134.34 94.7167 134.34 91.51C134.34 88.39 132.433 85.6167 128.62 83.19C124.807 80.7633 120.907 79.0733 116.92 78.12C111.2 76.56 106.13 74.6967 101.71 72.53C97.1167 70.2767 93.6933 67.5033 91.44 64.21C89.1867 60.9167 88.06 57.45 88.06 53.81C88.06 50.43 89.23 47.0067 91.57 43.54C93.91 39.9867 96.6833 37.43 99.89 35.87C101.623 35.0033 104.57 34.0933 108.73 33.14C112.977 32.1 116.053 31.58 117.96 31.58C120.473 31.58 123.247 31.8833 126.28 32.49C129.313 33.0967 131.783 33.9633 133.69 35.09C137.503 37.2567 140.32 39.2067 142.14 40.94C143.96 42.6733 144.87 44.84 144.87 47.44C144.87 49 144.263 50.3867 143.05 51.6C141.923 52.8133 139.93 53.42 137.07 53.42C136.377 53.42 135.683 53.1167 134.99 52.51C134.297 51.9033 133.43 50.9933 132.39 49.78C131.003 47.96 129.66 46.7467 128.36 46.14C127.06 45.7067 125.153 45.23 122.64 44.71C120.213 44.19 118.047 43.93 116.14 43.93C114.06 43.93 111.893 44.3633 109.64 45.23C107.387 46.0967 105.48 47.3533 103.92 49C102.447 50.56 101.71 52.38 101.71 54.46C101.71 56.1933 102.49 57.71 104.05 59.01C105.697 60.2233 107.647 61.22 109.9 62C112.5 63.04 115.317 63.95 118.35 64.73C122.337 65.9433 125.587 67.07 128.1 68.11C130.7 69.0633 133.213 70.2767 135.64 71.75C139.887 74.2633 142.963 76.8633 144.87 79.55C146.777 82.15 147.73 85.79 147.73 90.47ZM175.618 31.58C175.618 33.8333 175.575 36.4767 175.488 39.51C175.401 42.4567 175.315 44.71 175.228 46.27C174.968 50.69 174.838 55.11 174.838 59.53C174.838 62.8233 174.968 66.2467 175.228 69.8C177.915 65.9 180.818 63.04 183.938 61.22C187.058 59.4 190.828 58.49 195.248 58.49C198.455 58.49 201.445 59.92 204.218 62.78C206.991 65.64 208.768 68.9767 209.548 72.79C209.808 76.17 209.938 80.2867 209.938 85.14C209.938 88.26 210.111 92.3333 210.458 97.36C210.631 99.2667 211.108 101.043 211.888 102.69C212.755 104.337 213.968 105.16 215.528 105.16C216.308 105.16 216.915 105.117 217.348 105.03C217.868 104.943 218.345 104.9 218.778 104.9C219.991 104.9 220.815 105.203 221.248 105.81C221.768 106.417 222.028 107.283 222.028 108.41C222.028 110.49 220.988 112.05 218.908 113.09C216.828 114.13 214.921 114.65 213.188 114.65C206.948 114.65 202.658 112.05 200.318 106.85C199.018 103.903 198.195 100.09 197.848 95.41C197.501 90.6433 197.328 85.0967 197.328 78.77C197.328 72.53 195.205 69.41 190.958 69.41C188.618 69.41 186.235 70.6667 183.808 73.18C181.468 75.6067 179.518 78.8567 177.958 82.93C176.398 86.9167 175.618 91.0767 175.618 95.41L175.748 108.93C175.748 110.837 175.011 112.267 173.538 113.22C172.065 114.087 170.678 114.52 169.378 114.52C167.471 114.52 165.738 113.957 164.178 112.83C162.618 111.617 161.838 110.273 161.838 108.8C162.445 102.3 162.748 91.4233 162.748 76.17C162.748 73.3967 162.531 63.1267 162.098 45.36L161.708 33.4C161.708 31.4933 162.575 29.8467 164.308 28.46C166.041 26.9867 167.991 26.25 170.158 26.25C172.065 26.25 173.451 26.6833 174.318 27.55C175.185 28.4167 175.618 29.76 175.618 31.58ZM236.469 30.54C239.503 30.8 242.146 31.6233 244.399 33.01C246.653 34.31 247.779 36.3033 247.779 38.99C247.779 40.9833 246.826 42.5867 244.919 43.8C243.099 44.9267 240.889 45.49 238.289 45.49C235.776 45.49 234.043 44.84 233.089 43.54C232.136 42.24 231.659 40.8967 231.659 39.51C231.659 36.91 231.919 34.7433 232.439 33.01C233.046 31.2767 234.389 30.4533 236.469 30.54ZM246.869 88.13V91.9C246.869 95.28 246.956 98.4867 247.129 101.52C247.389 104.467 247.693 107.457 248.039 110.49C247.953 111.357 247.303 112.267 246.089 113.22C244.876 114.087 243.793 114.52 242.839 114.52C241.193 114.52 239.503 114.217 237.769 113.61C236.123 112.917 235.126 112.093 234.779 111.14C234.259 108.367 233.999 105.897 233.999 103.73C233.999 96.6233 233.783 88.65 233.349 79.81C233.003 72.01 232.829 66.55 232.829 63.43C232.829 61.87 233.609 60.5267 235.169 59.4C236.729 58.2733 238.376 57.71 240.109 57.71C242.623 57.71 244.356 58.2733 245.309 59.4C246.349 60.5267 246.869 62.3033 246.869 64.73V88.13ZM261.671 69.67C260.804 68.4567 260.198 67.4167 259.851 66.55C259.504 65.6833 259.331 64.6 259.331 63.3C259.331 61.9133 259.894 60.7433 261.021 59.79C262.234 58.8367 263.751 58.36 265.571 58.36C267.391 58.36 269.211 59.0533 271.031 60.44C272.851 61.74 274.324 63.43 275.451 65.51C277.271 62.91 279.741 61.0467 282.861 59.92C285.981 58.7933 289.361 58.23 293.001 58.23C296.988 58.23 300.671 59.4433 304.051 61.87C307.518 64.2967 310.248 67.4167 312.241 71.23C314.234 75.0433 315.231 78.8567 315.231 82.67C315.231 86.3967 314.841 89.7333 314.061 92.68C313.281 95.54 311.894 98.4433 309.901 101.39C307.648 104.51 304.614 107.067 300.801 109.06C297.074 111.053 292.611 112.05 287.411 112.05C286.024 112.05 284.334 111.703 282.341 111.01C280.348 110.23 278.701 109.407 277.401 108.54C276.794 114.433 276.491 119.547 276.491 123.88C276.491 126.48 276.621 128.95 276.881 131.29C277.054 134.063 277.141 136.057 277.141 137.27C277.141 139.177 276.491 140.563 275.191 141.43C273.891 142.383 272.461 142.86 270.901 142.86C267.781 142.86 265.701 141.993 264.661 140.26C263.708 138.613 263.231 136.23 263.231 133.11C263.578 125.657 264.011 118.767 264.531 112.44C265.138 103.34 265.441 92.16 265.441 78.9C265.441 77.86 265.008 76.3433 264.141 74.35C263.361 72.3567 262.538 70.7967 261.671 69.67ZM277.921 95.67C278.354 97.3167 279.568 98.7033 281.561 99.83C283.641 100.87 285.504 101.39 287.151 101.39C292.091 101.39 295.774 100.047 298.201 97.36C300.021 95.4533 301.191 93.59 301.711 91.77C302.318 89.95 302.621 87.0467 302.621 83.06C302.621 79.94 302.014 77.34 300.801 75.26C299.588 73.0933 298.114 71.5333 296.381 70.58C294.648 69.54 293.001 69.02 291.441 69.02C287.888 69.02 284.984 70.1033 282.731 72.27C280.564 74.35 279.178 77.21 278.571 80.85C278.138 83.71 277.921 88.65 277.921 95.67ZM390.991 84.62C387.611 84.62 384.751 84.5333 382.411 84.36C380.158 84.1 377.168 83.71 373.441 83.19L373.311 96.84C373.225 99.18 373.181 102.517 373.181 106.85C373.181 109.103 372.531 110.88 371.231 112.18C370.018 113.393 368.631 114 367.071 114C364.211 114 362.088 113.653 360.701 112.96C359.315 112.18 358.621 110.837 358.621 108.93C358.621 106.417 358.838 102.863 359.271 98.27C360.225 88.39 360.701 78.25 360.701 67.85C360.701 58.1433 360.398 49 359.791 40.42C359.878 39.2067 360.485 37.82 361.611 36.26C362.825 34.7 364.341 33.8333 366.161 33.66C368.155 33.66 371.318 33.3133 375.651 32.62C380.158 31.9267 383.581 31.58 385.921 31.58C393.028 31.58 398.531 32.2733 402.431 33.66C406.418 35.0467 410.405 37.3433 414.391 40.55C418.725 47.31 420.891 52.0767 420.891 54.85C420.891 60.6567 419.721 65.8133 417.381 70.32C415.041 74.8267 411.618 78.3367 407.111 80.85C402.605 83.3633 397.231 84.62 390.991 84.62ZM388.001 42.63C385.228 42.63 382.801 42.8033 380.721 43.15C378.728 43.41 376.301 43.8867 373.441 44.58C373.788 52.5533 373.961 58.36 373.961 62C373.961 65.7267 373.831 68.8467 373.571 71.36C377.298 72.14 380.245 72.66 382.411 72.92C384.578 73.0933 387.005 73.18 389.691 73.18C396.105 73.18 400.611 71.5333 403.211 68.24C405.898 64.86 407.241 60.96 407.241 56.54C407.241 55.24 406.851 53.6367 406.071 51.73C405.291 49.8233 404.598 48.5667 403.991 47.96C401.651 45.88 399.355 44.4933 397.101 43.8C394.935 43.02 391.901 42.63 388.001 42.63ZM437.309 30.54C440.342 30.8 442.986 31.6233 445.239 33.01C447.492 34.31 448.619 36.3033 448.619 38.99C448.619 40.9833 447.666 42.5867 445.759 43.8C443.939 44.9267 441.729 45.49 439.129 45.49C436.616 45.49 434.882 44.84 433.929 43.54C432.976 42.24 432.499 40.8967 432.499 39.51C432.499 36.91 432.759 34.7433 433.279 33.01C433.886 31.2767 435.229 30.4533 437.309 30.54ZM447.709 88.13V91.9C447.709 95.28 447.796 98.4867 447.969 101.52C448.229 104.467 448.532 107.457 448.879 110.49C448.879 111.53 448.272 112.483 447.059 113.35C445.846 114.13 444.719 114.52 443.679 114.52C442.032 114.52 440.342 114.217 438.609 113.61C436.962 112.917 435.966 112.093 435.619 111.14C435.099 108.367 434.839 105.897 434.839 103.73C434.839 96.6233 434.622 88.65 434.189 79.81C433.842 72.01 433.669 66.55 433.669 63.43C433.669 61.87 434.449 60.5267 436.009 59.4C437.569 58.2733 439.216 57.71 440.949 57.71C443.462 57.71 445.196 58.2733 446.149 59.4C447.189 60.5267 447.709 62.3033 447.709 64.73V88.13ZM478.501 93.85C478.501 97.1433 478.977 99.7 479.931 101.52C480.971 103.253 482.271 104.12 483.831 104.12C484.697 104.12 485.521 104.077 486.301 103.99C487.081 103.817 487.861 103.73 488.641 103.73C489.507 103.73 490.244 104.163 490.851 105.03C491.544 105.897 491.891 106.85 491.891 107.89C491.891 109.97 490.894 111.617 488.901 112.83C486.994 113.957 484.394 114.52 481.101 114.52C478.761 114.52 476.377 113.827 473.951 112.44C471.611 110.967 469.661 108.713 468.101 105.68C466.541 102.56 465.761 98.7033 465.761 94.11C465.761 84.23 465.934 75.8667 466.281 69.02C466.714 60.8733 466.931 50.6033 466.931 38.21C466.931 34.31 467.147 31.58 467.581 30.02C468.101 28.8067 468.924 27.8967 470.051 27.29C471.264 26.5967 472.521 26.25 473.821 26.25C475.121 26.25 476.247 26.4667 477.201 26.9C478.241 27.3333 478.934 28.0267 479.281 28.98C479.627 30.02 479.844 31.06 479.931 32.1C480.104 33.0533 480.191 34.44 480.191 36.26C480.191 39.8133 480.061 43.2367 479.801 46.53C479.627 50.5167 479.541 53.42 479.541 55.24C478.847 70.4933 478.501 83.3633 478.501 93.85Z" fill="white"/>
</svg>
